# xmcd
#
# Track frame offsets:
#	150
#	11728
#	22589
#	32455
#	45657
#	57776
#	68859
#	80845
#	96177
#	109852
#	121628
#	133843
#	144914
#	157572
#	168280
#	185074
#	200159
#	212966
#	226172
#	242260
#	255672
#	267382
#	278353
#	300331
#	315881
#
# Disc length: 4437 seconds
#
# Revision: 3
# Processed by: cddbd v1.5.2PL0 Copyright (c) Steve Scherf et al.
# Submitted via: EasyCDDAExtractor 12.0.7.1
#
DISCID=3e115319
DTITLE=Conway Twitty - Silver Anniversary Collection
DYEAR=1990
DGENRE=Country
TTITLE0=Guess My Eyes Were Bigger Than My Heart
TTITLE1=Look into My Teardrops
TTITLE2=I Don't Want to Be with Me
TTITLE3=The Image of Me
TTITLE4=To See My Angel Cry
TTITLE5=Hello Darlin'
TTITLE6=I Can't See Me Without You
TTITLE7=On Your Last Date
TTITLE8=You've Never Been This Far Before
TTITLE9=I'm Not Through Loving You Yet
TTITLE10=Linda on My Mind
TTITLE11=She Gives It All to Me
TTITLE12=You In My Mind
TTITLE13=Boogie Grass Band
TTITLE14=Don't Take It Away
TTITLE15=I'd Just Love to Lay You Down
TTITLE16=Tight Fittin' Jeans
TTITLE17=Slow Hand
TTITLE18=The Rose
TTITLE19=I Don't Know a Thing About Love
TTITLE20=Don't Call Him a Cowboy
TTITLE21=Desperado Love
TTITLE22=That's My Job
TTITLE23=Goodbye Time
TTITLE24=She's Got a Single Thing in Mind
EXTD=
EXTT0=
EXTT1=
EXTT2=
EXTT3=
EXTT4=
EXTT5=
EXTT6=
EXTT7=
EXTT8=
EXTT9=
EXTT10=
EXTT11=
EXTT12=
EXTT13=
EXTT14=
EXTT15=
EXTT16=
EXTT17=
EXTT18=
EXTT19=
EXTT20=
EXTT21=
EXTT22=
EXTT23=
EXTT24=
PLAYORDER=
